<svg width="16" height="16" viewBox="0 0 16 16" fill="none" xmlns="http://www.w3.org/2000/svg">
<path d="M6.24335 1.94909C7.00008 0.63839 8.89191 0.63839 9.64864 1.94909L14.8569 10.97C15.6136 12.2807 14.6677 13.919 13.1542 13.919L2.73778 13.919C1.22432 13.919 0.2784 12.2807 1.03513 10.97L6.24335 1.94909Z" fill="url(#paint0_linear)"/>
<mask id="mask0" mask-type="alpha" maskUnits="userSpaceOnUse" x="0" y="0" width="16" height="14">
<path d="M6.35712 1.94909C7.11385 0.63839 9.00568 0.63839 9.76241 1.94909L14.9706 10.97C15.7274 12.2807 14.7814 13.919 13.268 13.919L2.85155 13.919C1.33809 13.919 0.39217 12.2807 1.1489 10.97L6.35712 1.94909Z" fill="url(#paint1_linear)"/>
</mask>
<g mask="url(#mask0)">
<path opacity="0.8" d="M7.623 4.24269C8.45422 2.99031 10.3263 3.09607 11.0112 4.4341L14.4011 11.0568C15.0416 12.3082 14.1999 13.808 12.798 13.9131L4.6046 14.5278C2.97333 14.6501 1.91483 12.843 2.81946 11.48L7.623 4.24269Z" fill="#1C455B"/>
</g>
<path d="M7.70542 4.16624C8.41856 2.93104 10.2014 2.93104 10.9146 4.16624L14.9408 11.1398C15.6539 12.375 14.7625 13.919 13.3362 13.919L5.28379 13.919C3.8575 13.919 2.96607 12.375 3.67922 11.1398L7.70542 4.16624Z" fill="url(#paint2_linear)"/>
<mask id="mask1" mask-type="alpha" maskUnits="userSpaceOnUse" x="3" y="4" width="11" height="10">
<path d="M6.61282 5.47283C7.36956 4.16213 9.26138 4.16213 10.0181 5.47283L13.1837 10.9558C13.9404 12.2665 12.9945 13.9049 11.4811 13.9049L5.14989 13.9049C3.63642 13.9049 2.69051 12.2665 3.44724 10.9558L6.61282 5.47283Z" fill="url(#paint3_linear)"/>
</mask>
<g mask="url(#mask1)">
<path d="M8.14291 9.19985C8.97358 7.94398 10.8499 8.04981 11.5341 9.39111L12.7983 11.8696C13.4365 13.1207 12.595 14.618 11.1946 14.7235L8.13879 14.9535C6.50876 15.0762 5.44963 13.2718 6.35141 11.9084L8.14291 9.19985Z" fill="#4A9452"/>
</g>
<path d="M9.91904 6.38846C10.4441 5.47911 11.7566 5.47912 12.2816 6.38847L15.4563 11.8872C15.9813 12.7965 15.325 13.9332 14.275 13.9332L7.92563 13.9332C6.8756 13.9332 6.21934 12.7965 6.74435 11.8872L9.91904 6.38846Z" fill="url(#paint4_linear)"/>
<defs>
<linearGradient id="paint0_linear" x1="3.17193" y1="8.37769" x2="0.500713" y2="13.2655" gradientUnits="userSpaceOnUse">
<stop stop-color="#3A83A3"/>
<stop offset="1" stop-color="#2C6681"/>
</linearGradient>
<linearGradient id="paint1_linear" x1="3.2857" y1="8.37769" x2="0.614482" y2="13.2655" gradientUnits="userSpaceOnUse">
<stop stop-color="#3A83A3"/>
<stop offset="1" stop-color="#2C6681"/>
</linearGradient>
<linearGradient id="paint2_linear" x1="6.48674" y1="8.27431" x2="5.12999" y2="11.0089" gradientUnits="userSpaceOnUse">
<stop stop-color="#429383"/>
<stop offset="1" stop-color="#327364"/>
</linearGradient>
<linearGradient id="paint3_linear" x1="4.67353" y1="9.67759" x2="2.63578" y2="13.4062" gradientUnits="userSpaceOnUse">
<stop stop-color="#3A83A3"/>
<stop offset="1" stop-color="#2C6681"/>
</linearGradient>
<linearGradient id="paint4_linear" x1="9.9015" y1="8.05315" x2="6.31408" y2="13.5131" gradientUnits="userSpaceOnUse">
<stop stop-color="#C7DF6A"/>
<stop offset="1" stop-color="#84C95F"/>
</linearGradient>
</defs>
</svg>
